<svg width="390" height="389" viewBox="0 0 390 389" fill="none" xmlns="http://www.w3.org/2000/svg">
<path d="M190.517 42.008L192.821 42.008V49.352H193.013L200.525 42.008H203.741L195.533 49.856L204.293 59H200.933L193.013 50.504H192.821V59L190.517 59V42.008Z" fill="#D36135"/>
<path d="M213.098 52.2428C213.784 51.7821 214.543 51.4785 215.375 51.3318C216.21 51.1693 217.022 51.1491 217.813 51.2712C218.635 51.3982 219.323 51.6097 219.876 51.9056C220.446 52.204 220.893 52.5564 221.219 52.9629C221.545 53.3694 221.759 53.8154 221.862 54.3008C221.983 54.7728 222.006 55.254 221.931 55.7441L221.044 61.4841C220.983 61.8794 220.935 62.2443 220.899 62.5788C220.864 62.9133 220.839 63.2332 220.824 63.5385L218.926 63.2455C218.967 62.6689 219.031 62.096 219.119 61.5267L219.071 61.5194C218.485 62.1735 217.844 62.6007 217.149 62.801C216.455 63.0013 215.68 63.0355 214.826 62.9036C214.305 62.823 213.818 62.6749 213.365 62.4593C212.913 62.2438 212.527 61.9656 212.207 61.6248C211.903 61.2864 211.68 60.8958 211.538 60.4529C211.398 59.9942 211.371 59.4882 211.457 58.9347C211.569 58.2073 211.821 57.623 212.213 57.1817C212.621 56.7428 213.125 56.4158 213.725 56.2009C214.343 55.9726 215.033 55.8525 215.796 55.8408C216.577 55.8158 217.394 55.8692 218.248 56.001L219.814 56.2428L219.887 55.7685C219.931 55.4838 219.919 55.1907 219.853 54.8889C219.786 54.5872 219.659 54.3086 219.472 54.053C219.287 53.7816 219.039 53.557 218.726 53.3793C218.416 53.1857 218.032 53.0534 217.573 52.9826C217.162 52.9191 216.792 52.9025 216.464 52.9327C216.151 52.9653 215.858 53.0254 215.586 53.1128C215.316 53.1844 215.066 53.2834 214.836 53.4098C214.606 53.5361 214.385 53.6558 214.173 53.7688L213.098 52.2428ZM218.433 57.6324C217.927 57.5543 217.401 57.5053 216.853 57.4855C216.324 57.4523 215.826 57.4806 215.359 57.5704C214.907 57.6626 214.517 57.829 214.189 58.0696C213.876 58.3127 213.685 58.6557 213.617 59.0984C213.517 59.7467 213.658 60.2462 214.041 60.5967C214.44 60.9497 215.011 61.1837 215.754 61.2984C216.339 61.3888 216.852 61.3709 217.293 61.2446C217.735 61.1026 218.108 60.8929 218.41 60.6158C218.711 60.3386 218.947 60.0188 219.116 59.6564C219.288 59.2782 219.403 58.8993 219.462 58.5198L219.572 57.8083L218.433 57.6324Z" fill="#D36135"/>
<path d="M235.694 55.6034L237.754 56.2551L237.225 57.9255L237.271 57.94C237.5 57.6936 237.765 57.4922 238.066 57.3358C238.372 57.1641 238.689 57.0379 239.017 56.9569C239.36 56.8809 239.714 56.8502 240.078 56.8649C240.447 56.8643 240.8 56.9171 241.136 57.0233C241.471 57.1295 241.762 57.2718 242.007 57.4502L241.213 59.6408C241.06 59.5419 240.904 59.4507 240.746 59.3671C240.588 59.2835 240.425 59.2151 240.257 59.162C239.251 58.8434 238.391 58.8818 237.678 59.2772C236.966 59.6727 236.421 60.4653 236.045 61.6552L234.321 67.101L232.262 66.4493L235.694 55.6034Z" fill="#D36135"/>
<path d="M260.917 58.1721L262.853 59.1305L254.802 75.3905L252.866 74.4321L260.917 58.1721Z" fill="#D36135"/>
<path d="M296.518 86.7979L292.575 83.0035L294.073 81.4471L303.619 90.6337L302.121 92.1901L298.178 88.3956L287.893 99.0824L286.233 97.4847L296.518 86.7979Z" fill="#D36135"/>
<path d="M309.01 105.737L310.32 107.455L301.272 114.351L299.963 112.633L309.01 105.737ZM311.949 102.863C312.293 102.601 312.678 102.499 313.104 102.556C313.552 102.617 313.908 102.819 314.169 103.162C314.431 103.506 314.527 103.895 314.457 104.331C314.409 104.77 314.214 105.12 313.87 105.382C313.526 105.644 313.13 105.745 312.682 105.684C312.256 105.627 311.912 105.426 311.65 105.083C311.388 104.739 311.281 104.348 311.329 103.909C311.399 103.473 311.606 103.125 311.949 102.863Z" fill="#D36135"/>
<path d="M314.368 125.265C313.932 125.502 313.582 125.811 313.315 126.193C313.071 126.581 312.906 126.998 312.822 127.445C312.737 127.892 312.735 128.357 312.816 128.841C312.897 129.325 313.056 129.785 313.293 130.221C313.614 130.811 314.027 131.252 314.531 131.542C315.049 131.825 315.632 132.027 316.28 132.148L315.964 134.178C314.027 133.865 312.543 132.76 311.511 130.862C311.083 130.075 310.827 129.285 310.742 128.494C310.665 127.716 310.736 126.976 310.956 126.274C311.197 125.578 311.568 124.939 312.071 124.356C312.588 123.766 313.218 123.268 313.963 122.863C314.708 122.457 315.466 122.209 316.236 122.119C317.028 122.034 317.778 122.09 318.486 122.288C319.216 122.492 319.887 122.838 320.498 123.325C321.109 123.812 321.617 124.428 322.022 125.173C322.504 126.059 322.754 126.888 322.774 127.661C322.801 128.447 322.668 129.175 322.376 129.844C322.098 130.505 321.689 131.092 321.148 131.604C320.629 132.123 320.046 132.559 319.4 132.91L318.725 133.277L314.368 125.265ZM319.142 130.427C319.556 130.184 319.905 129.904 320.187 129.586C320.478 129.283 320.684 128.942 320.807 128.566C320.945 128.182 320.984 127.769 320.926 127.327C320.889 126.891 320.741 126.435 320.481 125.957C320.229 125.493 319.905 125.114 319.508 124.82C319.133 124.532 318.732 124.331 318.306 124.217C317.879 124.102 317.448 124.064 317.013 124.1C316.599 124.143 316.224 124.256 315.886 124.44L319.142 130.427Z" fill="#D36135"/>
<path d="M330.41 149.978L329.364 147.065L324.508 148.809C324.206 148.917 323.908 149.033 323.612 149.156C323.332 149.274 323.087 149.421 322.878 149.598C322.69 149.784 322.556 150.003 322.476 150.252C322.416 150.512 322.457 150.837 322.597 151.229C322.684 151.47 322.796 151.71 322.933 151.95C323.07 152.19 323.236 152.393 323.433 152.561L321.58 153.226C321.358 153.034 321.154 152.75 320.969 152.375C320.773 152.02 320.638 151.737 320.562 151.526C320.281 150.743 320.167 150.096 320.221 149.583C320.296 149.08 320.468 148.661 320.739 148.326C321.015 148.006 321.355 147.748 321.761 147.551C322.187 147.364 322.618 147.192 323.055 147.035L328.634 145.032L327.79 142.683L329.552 142.05L330.396 144.399L333.4 143.32L334.13 145.353L331.126 146.432L332.172 149.346L330.41 149.978Z" fill="#D36135"/>
<path d="M326.621 164.783L335.272 169.681L334.084 163.555L335.921 163.199L337.612 171.917L335.727 172.282L327.044 167.341L328.346 174.056L326.508 174.412L324.712 165.153L326.621 164.783Z" fill="#D36135"/>
<path d="M332.524 185.478C332.028 185.497 331.576 185.618 331.169 185.842C330.777 186.081 330.445 186.382 330.17 186.745C329.896 187.108 329.688 187.524 329.546 187.994C329.404 188.464 329.342 188.946 329.361 189.442C329.387 190.113 329.561 190.691 329.884 191.175C330.223 191.659 330.656 192.098 331.183 192.494L329.999 194.173C328.402 193.033 327.562 191.384 327.479 189.226C327.445 188.331 327.566 187.509 327.841 186.762C328.118 186.031 328.51 185.4 329.018 184.868C329.542 184.351 330.159 183.943 330.868 183.644C331.593 183.344 332.379 183.178 333.227 183.145C334.074 183.113 334.863 183.227 335.594 183.487C336.341 183.762 336.988 184.146 337.535 184.637C338.099 185.144 338.547 185.751 338.878 186.459C339.209 187.167 339.391 187.945 339.424 188.792C339.462 189.799 339.319 190.653 338.993 191.354C338.669 192.071 338.227 192.665 337.669 193.134C337.126 193.604 336.499 193.948 335.787 194.167C335.091 194.402 334.376 194.534 333.64 194.562L332.873 194.591L332.524 185.478ZM334.511 192.223C334.99 192.188 335.427 192.092 335.821 191.932C336.216 191.789 336.552 191.576 336.83 191.293C337.123 191.01 337.342 190.657 337.486 190.235C337.646 189.829 337.716 189.354 337.695 188.81C337.675 188.283 337.552 187.799 337.327 187.359C337.119 186.935 336.849 186.577 336.518 186.286C336.186 185.994 335.817 185.768 335.411 185.607C335.021 185.462 334.634 185.397 334.25 185.412L334.511 192.223Z" fill="#D36135"/>
<path d="M326.95 233.538L328.514 227.846L330.458 228.38L328.894 234.073L326.95 233.538Z" fill="#D36135"/>
<path d="M314.638 278.408C315.423 278.345 316.156 278.095 316.839 277.66C317.521 277.225 318.075 276.678 318.501 276.02C319.023 275.214 319.342 274.382 319.46 273.524C319.582 272.688 319.533 271.866 319.314 271.057C319.085 270.261 318.698 269.505 318.152 268.789C317.618 268.081 316.949 267.467 316.143 266.945C315.391 266.458 314.601 266.118 313.773 265.925C312.945 265.731 312.128 265.698 311.322 265.824C310.516 265.95 309.752 266.247 309.031 266.713C308.309 267.18 307.678 267.83 307.139 268.662C306.609 269.482 306.311 270.309 306.247 271.144C306.183 271.979 306.314 272.807 306.64 273.629L304.354 274.465C304.276 274.261 304.183 273.934 304.075 273.483C303.98 273.04 303.935 272.506 303.94 271.88C303.959 271.263 304.071 270.574 304.279 269.812C304.464 269.055 304.822 268.267 305.352 267.448C306.083 266.32 306.959 265.438 307.98 264.804C308.992 264.182 310.056 263.775 311.172 263.583C312.279 263.404 313.378 263.429 314.469 263.659C315.572 263.897 316.574 264.307 317.474 264.89C318.575 265.603 319.472 266.441 320.164 267.404C320.869 268.375 321.348 269.401 321.602 270.48C321.861 271.582 321.883 272.711 321.668 273.868C321.452 275.024 320.988 276.153 320.275 277.255C319.666 278.195 318.889 278.997 317.944 279.662C316.99 280.341 315.95 280.725 314.824 280.816L314.638 278.408Z" fill="#D36135"/>
<path d="M304.496 288.169L303.058 289.781L301.75 288.616L301.719 288.652C301.85 288.961 301.925 289.286 301.944 289.624C301.976 289.974 301.962 290.315 301.901 290.647C301.83 290.991 301.714 291.326 301.551 291.653C301.401 291.99 301.208 292.29 300.974 292.553C300.74 292.816 300.491 293.023 300.228 293.174L298.554 291.553C298.707 291.454 298.854 291.349 298.995 291.239C299.136 291.129 299.265 291.008 299.382 290.877C300.084 290.088 300.401 289.288 300.332 288.476C300.262 287.664 299.762 286.843 298.83 286.013L294.566 282.213L296.003 280.6L304.496 288.169Z" fill="#D36135"/>
<path d="M285.196 298.436C284.88 298.053 284.51 297.768 284.085 297.579C283.658 297.413 283.216 297.331 282.762 297.333C282.307 297.334 281.85 297.421 281.39 297.593C280.93 297.765 280.509 298.008 280.126 298.324C279.608 298.752 279.254 299.24 279.065 299.791C278.886 300.353 278.798 300.964 278.803 301.624L276.75 301.699C276.689 299.738 277.491 298.071 279.157 296.697C279.849 296.126 280.575 295.725 281.336 295.491C282.085 295.267 282.825 295.196 283.556 295.278C284.285 295.382 284.983 295.625 285.651 296.008C286.329 296.402 286.938 296.927 287.477 297.581C288.017 298.235 288.405 298.932 288.64 299.671C288.874 300.432 288.962 301.179 288.902 301.912C288.841 302.668 288.63 303.392 288.268 304.084C287.906 304.777 287.397 305.393 286.743 305.933C285.965 306.574 285.199 306.978 284.445 307.144C283.677 307.32 282.938 307.329 282.226 307.169C281.524 307.022 280.87 306.732 280.264 306.299C279.655 305.888 279.117 305.399 278.649 304.831L278.16 304.239L285.196 298.436ZM281.037 304.106C281.355 304.466 281.696 304.754 282.062 304.971C282.415 305.199 282.788 305.337 283.181 305.386C283.585 305.447 283.998 305.407 284.42 305.266C284.841 305.148 285.261 304.915 285.681 304.569C286.088 304.233 286.398 303.842 286.612 303.397C286.823 302.974 286.944 302.542 286.975 302.102C287.006 301.662 286.962 301.231 286.843 300.811C286.722 300.413 286.54 300.065 286.295 299.769L281.037 304.106Z" fill="#D36135"/>
<path d="M270.964 315.302C270.728 316.094 270.335 316.811 269.786 317.454C269.246 318.11 268.632 318.643 267.944 319.052C267.229 319.477 266.564 319.751 265.949 319.875C265.32 320.007 264.75 320.02 264.241 319.913C263.731 319.807 263.281 319.599 262.893 319.291C262.499 319.004 262.175 318.647 261.922 318.221L258.954 313.228C258.749 312.884 258.554 312.572 258.369 312.291C258.184 312.011 257.999 311.748 257.817 311.503L259.467 310.522C259.803 310.993 260.118 311.475 260.412 311.97L260.453 311.946C260.49 311.068 260.712 310.331 261.121 309.734C261.529 309.138 262.105 308.619 262.847 308.177C263.301 307.907 263.771 307.712 264.257 307.59C264.744 307.469 265.219 307.438 265.682 307.497C266.132 307.565 266.552 307.724 266.944 307.976C267.343 308.241 267.686 308.614 267.972 309.095C268.348 309.728 268.526 310.339 268.504 310.929C268.469 311.527 268.288 312.1 267.962 312.647C267.63 313.217 267.174 313.749 266.593 314.243C266.007 314.759 265.342 315.238 264.599 315.679L263.238 316.489L263.483 316.902C263.63 317.149 263.825 317.368 264.069 317.558C264.312 317.749 264.588 317.883 264.895 317.961C265.21 318.053 265.545 318.068 265.899 318.006C266.261 317.958 266.642 317.816 267.041 317.579C267.398 317.366 267.694 317.144 267.928 316.911C268.149 316.687 268.336 316.455 268.491 316.214C268.654 315.987 268.784 315.751 268.881 315.507C268.978 315.264 269.072 315.031 269.163 314.809L270.964 315.302ZM263.418 314.539C263.859 314.277 264.296 313.98 264.731 313.647C265.16 313.336 265.527 312.997 265.83 312.63C266.12 312.272 266.315 311.896 266.415 311.501C266.502 311.114 266.43 310.728 266.201 310.343C265.866 309.78 265.439 309.484 264.921 309.457C264.389 309.439 263.799 309.622 263.153 310.006C262.644 310.308 262.26 310.648 262 311.026C261.749 311.417 261.595 311.816 261.539 312.222C261.482 312.628 261.504 313.024 261.604 313.412C261.712 313.813 261.864 314.178 262.06 314.508L262.428 315.127L263.418 314.539Z" fill="#D36135"/>
<path d="M244.139 327.991L247.01 326.833L245.081 322.047C244.962 321.751 244.835 321.457 244.7 321.166C244.572 320.89 244.415 320.651 244.231 320.45C244.037 320.269 243.814 320.143 243.561 320.073C243.299 320.023 242.976 320.076 242.59 320.231C242.352 320.327 242.117 320.448 241.882 320.594C241.648 320.74 241.451 320.915 241.291 321.117L240.555 319.292C240.739 319.062 241.015 318.848 241.382 318.648C241.729 318.439 242.007 318.293 242.215 318.209C242.986 317.898 243.629 317.759 244.143 317.794C244.649 317.849 245.074 318.005 245.419 318.263C245.75 318.526 246.021 318.857 246.233 319.255C246.436 319.673 246.624 320.097 246.798 320.528L249.014 326.026L251.329 325.093L252.029 326.829L249.714 327.762L250.907 330.723L248.903 331.53L247.71 328.57L244.839 329.727L244.139 327.991Z" fill="#D36135"/>
<path d="M228.757 334.562L226.654 335.054L224.062 323.977L226.165 323.485L228.757 334.562ZM230.178 338.419C230.276 338.84 230.212 339.233 229.985 339.598C229.747 339.983 229.417 340.224 228.996 340.323C228.576 340.421 228.181 340.349 227.812 340.107C227.431 339.884 227.192 339.562 227.093 339.141C226.995 338.721 227.065 338.318 227.303 337.934C227.53 337.568 227.854 337.336 228.275 337.238C228.695 337.14 229.096 337.202 229.477 337.425C229.846 337.667 230.079 337.999 230.178 338.419Z" fill="#D36135"/>
<path d="M210.6 337.82L208.111 338.011L204.046 329.585L201.459 338.521L199.161 338.698L202.741 327.013L205.11 326.832L210.6 337.82Z" fill="#D36135"/>
<path d="M187.624 331.984C187.662 331.489 187.593 331.027 187.417 330.596C187.225 330.18 186.964 329.815 186.635 329.501C186.306 329.187 185.916 328.932 185.466 328.737C185.016 328.542 184.543 328.426 184.049 328.388C183.379 328.336 182.785 328.443 182.267 328.708C181.748 328.989 181.261 329.369 180.807 329.848L179.276 328.479C180.591 327.023 182.325 326.378 184.479 326.543C185.372 326.612 186.174 326.826 186.885 327.185C187.58 327.544 188.162 328.005 188.632 328.571C189.085 329.151 189.419 329.811 189.635 330.55C189.85 331.304 189.925 332.104 189.86 332.95C189.795 333.795 189.592 334.566 189.25 335.262C188.89 335.973 188.435 336.571 187.884 337.059C187.316 337.561 186.661 337.936 185.92 338.184C185.179 338.432 184.386 338.523 183.54 338.458C182.535 338.381 181.703 338.141 181.044 337.737C180.369 337.332 179.83 336.826 179.428 336.217C179.024 335.624 178.754 334.962 178.617 334.229C178.464 333.511 178.415 332.785 178.472 332.052L178.531 331.286L187.624 331.984ZM180.695 333.185C180.675 333.665 180.721 334.11 180.834 334.52C180.931 334.928 181.104 335.287 181.353 335.594C181.601 335.918 181.926 336.176 182.329 336.367C182.714 336.574 183.178 336.697 183.72 336.739C184.247 336.779 184.741 336.713 185.204 336.54C185.649 336.382 186.036 336.155 186.363 335.859C186.691 335.563 186.958 335.222 187.164 334.837C187.353 334.466 187.462 334.09 187.491 333.707L180.695 333.185Z" fill="#D36135"/>
<path d="M148.48 337.289L146.254 336.392L147.859 322.393L147.815 322.375L139.019 333.476L136.571 332.489L137.931 318.392L137.887 318.374L129.336 329.574L127.11 328.676L138.047 314.764L140.296 315.671L138.939 330.08L138.983 330.098L147.975 318.766L150.224 319.672L148.48 337.289Z" fill="#D36135"/>
<path d="M127.214 314.493C127.468 314.067 127.612 313.622 127.645 313.158C127.657 312.7 127.585 312.257 127.43 311.83C127.275 311.402 127.038 311.001 126.721 310.626C126.404 310.252 126.033 309.938 125.606 309.684C125.029 309.341 124.449 309.173 123.867 309.181C123.277 309.203 122.673 309.327 122.054 309.555L121.289 307.648C123.113 306.927 124.954 307.119 126.81 308.222C127.581 308.68 128.204 309.228 128.682 309.865C129.145 310.494 129.462 311.167 129.632 311.882C129.781 312.603 129.788 313.343 129.654 314.101C129.511 314.872 129.224 315.623 128.79 316.352C128.357 317.081 127.832 317.681 127.217 318.153C126.58 318.63 125.906 318.965 125.196 319.157C124.464 319.355 123.711 319.4 122.937 319.294C122.163 319.187 121.411 318.917 120.682 318.484C119.816 317.969 119.177 317.384 118.765 316.73C118.34 316.067 118.082 315.374 117.991 314.65C117.892 313.94 117.944 313.226 118.147 312.509C118.328 311.798 118.607 311.126 118.983 310.493L119.375 309.833L127.214 314.493ZM120.473 312.496C120.241 312.916 120.085 313.336 120.004 313.753C119.91 314.162 119.906 314.56 119.993 314.947C120.071 315.347 120.248 315.722 120.524 316.072C120.778 316.428 121.139 316.745 121.606 317.023C122.06 317.293 122.533 317.453 123.024 317.503C123.494 317.558 123.941 317.526 124.366 317.407C124.79 317.287 125.181 317.1 125.536 316.846C125.87 316.598 126.135 316.309 126.331 315.979L120.473 312.496Z" fill="#D36135"/>
<path d="M102.235 313.834L100.569 312.46L105.913 305.979L105.876 305.949C105.203 306.161 104.482 306.168 103.713 305.969C102.933 305.782 102.229 305.429 101.599 304.91C100.92 304.35 100.406 303.729 100.056 303.047C99.6944 302.354 99.4951 301.64 99.4585 300.905C99.3994 300.172 99.4991 299.435 99.7576 298.694C100.006 297.965 100.4 297.274 100.939 296.62C101.479 295.966 102.083 295.447 102.75 295.065C103.418 294.682 104.123 294.444 104.864 294.35C105.593 294.246 106.332 294.306 107.081 294.53C107.817 294.743 108.525 295.13 109.204 295.689C109.796 296.178 110.269 296.786 110.624 297.514C110.965 298.231 111.103 298.956 111.037 299.69L111.074 299.721L112.113 298.462L113.779 299.836L102.235 313.834ZM108.125 297.413C107.68 297.046 107.218 296.789 106.738 296.642C106.248 296.508 105.772 296.468 105.312 296.524C104.841 296.592 104.385 296.755 103.943 297.013C103.492 297.284 103.083 297.641 102.717 298.086C102.35 298.53 102.082 298.993 101.913 299.476C101.733 299.97 101.659 300.449 101.693 300.912C101.715 301.387 101.845 301.846 102.081 302.29C102.306 302.745 102.641 303.156 103.086 303.523C103.53 303.889 103.997 304.14 104.488 304.275C104.968 304.422 105.443 304.461 105.914 304.393C106.375 304.338 106.831 304.175 107.282 303.904C107.723 303.646 108.127 303.294 108.494 302.85C108.86 302.406 109.133 301.936 109.313 301.441C109.483 300.959 109.556 300.48 109.533 300.005C109.5 299.542 109.371 299.083 109.145 298.627C108.909 298.184 108.569 297.779 108.125 297.413Z" fill="#D36135"/>
<path d="M72.6918 281.687L69.4696 276.711C68.8173 275.704 68.3618 274.75 68.103 273.85C67.8356 272.937 67.7183 272.079 67.7512 271.276C67.762 270.468 67.8984 269.722 68.1605 269.038C68.4139 268.34 68.7329 267.714 69.1175 267.16C69.5021 266.606 69.9258 266.112 70.3887 265.679C70.8516 265.246 71.3046 264.886 71.7478 264.599C72.6611 264.008 73.6561 263.601 74.7331 263.381C75.7966 263.168 76.8772 263.174 77.9748 263.397C79.059 263.629 80.12 264.105 81.1578 264.824C82.1869 265.53 83.1146 266.521 83.9408 267.797L86.9543 272.45L72.6918 281.687ZM83.8889 271.691L82.3104 269.253C81.7799 268.434 81.1723 267.731 80.4878 267.145C79.7812 266.554 79.028 266.127 78.2282 265.864C77.4284 265.6 76.5952 265.52 75.7284 265.624C74.8481 265.736 73.9649 266.08 73.0785 266.654C72.6219 266.949 72.1392 267.367 71.6305 267.906C71.1084 268.454 70.7069 269.114 70.4259 269.887C70.1362 270.646 70.0381 271.511 70.1317 272.479C70.2119 273.457 70.6259 274.523 71.3739 275.678L73.2525 278.579L83.8889 271.691Z" fill="#D36135"/>
<path d="M70.2904 253.707C70.743 253.504 71.1165 253.223 71.411 252.863C71.6844 252.495 71.8805 252.091 71.9993 251.652C72.1181 251.213 72.1556 250.749 72.1118 250.26C72.068 249.772 71.9446 249.301 71.7417 248.848C71.4669 248.235 71.0893 247.764 70.609 247.436C70.1141 247.114 69.5479 246.868 68.9105 246.698L69.3818 244.699C71.2888 245.159 72.6842 246.374 73.5678 248.345C73.9343 249.163 74.1294 249.97 74.1531 250.766C74.1702 251.547 74.0426 252.279 73.7702 252.962C73.4767 253.638 73.0571 254.246 72.5114 254.789C71.951 255.338 71.284 255.787 70.5102 256.133C69.7363 256.48 68.962 256.67 68.1872 256.701C67.3913 256.725 66.6477 256.611 65.9564 256.36C65.244 256.101 64.6019 255.705 64.0299 255.172C63.458 254.64 62.9986 253.986 62.6517 253.213C62.2394 252.293 62.0531 251.447 62.0928 250.675C62.1261 249.889 62.3138 249.173 62.6562 248.529C62.9839 247.891 63.437 247.337 64.0155 246.868C64.5728 246.39 65.1872 246 65.8589 245.699L66.5597 245.385L70.2904 253.707ZM65.9253 248.194C65.4939 248.405 65.1251 248.658 64.819 248.953C64.5064 249.234 64.2743 249.557 64.1228 249.923C63.9566 250.296 63.8856 250.704 63.9098 251.149C63.9128 251.586 64.0256 252.053 64.2481 252.549C64.4641 253.031 64.7587 253.434 65.1317 253.758C65.4836 254.073 65.8678 254.304 66.2841 254.451C66.7005 254.597 67.1272 254.669 67.5642 254.666C67.98 254.655 68.3632 254.571 68.7136 254.414L65.9253 248.194Z" fill="#D36135"/>
<path d="M56.7731 237.034L56.1117 234.627L63.6093 229.033L54.3438 228.194L53.7333 225.972L65.8855 227.262L66.5151 229.553L56.7731 237.034Z" fill="#D36135"/>
<path d="M58.1272 213.368C58.62 213.311 59.061 213.155 59.4504 212.901C59.8221 212.632 60.1308 212.307 60.3765 211.924C60.6223 211.541 60.798 211.11 60.9037 210.631C61.0095 210.152 61.0339 209.666 60.977 209.173C60.8999 208.506 60.682 207.943 60.3231 207.485C59.9483 207.029 59.4828 206.624 58.9264 206.269L59.979 204.505C61.6584 205.519 62.622 207.099 62.8697 209.245C62.9724 210.135 62.915 210.963 62.6974 211.729C62.478 212.479 62.1354 213.138 61.6696 213.708C61.1861 214.263 60.6023 214.717 59.9182 215.069C59.2183 215.424 58.4471 215.65 57.6047 215.747C56.7623 215.845 55.9669 215.791 55.2187 215.588C54.4527 215.37 53.778 215.037 53.1948 214.589C52.5938 214.127 52.1011 213.556 51.7165 212.876C51.3319 212.195 51.091 211.434 50.9938 210.591C50.8782 209.59 50.9558 208.727 51.2265 208.004C51.4955 207.264 51.8904 206.639 52.4112 206.127C52.9161 205.618 53.5152 205.227 54.2084 204.954C54.8839 204.666 55.5872 204.48 56.3184 204.396L57.0813 204.308L58.1272 213.368ZM55.629 206.795C55.154 206.866 54.726 206.996 54.3452 207.185C53.9625 207.358 53.6437 207.596 53.3888 207.899C53.118 208.204 52.927 208.572 52.8158 209.004C52.6868 209.422 52.6535 209.901 52.7159 210.441C52.7764 210.965 52.9357 211.438 53.1937 211.859C53.434 212.267 53.7305 212.603 54.0833 212.868C54.436 213.133 54.8212 213.331 55.2387 213.46C55.6385 213.574 56.0292 213.61 56.4106 213.566L55.629 206.795Z" fill="#D36135"/>
<path d="M43.6483 189.454L43.731 187.296L61.8617 187.991L61.779 190.149L43.6483 189.454Z" fill="#D36135"/>
<path d="M57.8605 171.418C58.426 171.528 58.969 171.544 59.4894 171.465C59.9941 171.384 60.4497 171.22 60.8562 170.973C61.247 170.722 61.5887 170.389 61.8812 169.973C62.158 169.554 62.3513 169.062 62.4609 168.497C62.5706 167.931 62.5754 167.403 62.4752 166.911C62.3594 166.415 62.167 165.979 61.898 165.601C61.6134 165.22 61.2522 164.897 60.8145 164.633C60.3611 164.365 59.8517 164.177 59.2862 164.067C58.7207 163.958 58.1856 163.944 57.6809 164.025C57.1605 164.103 56.7049 164.268 56.3141 164.518C55.9076 164.765 55.5659 165.098 55.2891 165.517C54.9966 165.933 54.7955 166.423 54.6858 166.989C54.5761 167.554 54.5792 168.085 54.6951 168.58C54.7952 169.072 54.9876 169.508 55.2723 169.89C55.5412 170.268 55.9024 170.59 56.3558 170.858C56.7935 171.122 57.2951 171.309 57.8605 171.418ZM57.4219 173.68C56.6051 173.522 55.8722 173.225 55.2233 172.789C54.5774 172.338 54.0392 171.794 53.6087 171.156C53.1782 170.518 52.8838 169.809 52.7255 169.029C52.5515 168.246 52.5452 167.438 52.7067 166.605C52.8681 165.773 53.176 165.026 53.6303 164.364C54.0688 163.699 54.6069 163.152 55.2446 162.721C55.8822 162.291 56.5833 161.995 57.348 161.833C58.1158 161.656 58.9081 161.647 59.7249 161.806C60.5416 161.964 61.2808 162.27 61.9424 162.725C62.5914 163.16 63.1311 163.697 63.5616 164.334C63.9764 164.969 64.2707 165.678 64.4448 166.461C64.6031 167.242 64.6015 168.048 64.4401 168.881C64.2786 169.713 63.9786 170.462 63.54 171.126C63.0858 171.788 62.5477 172.336 61.9257 172.769C61.2881 173.2 60.5854 173.503 59.8177 173.68C59.0373 173.839 58.2387 173.839 57.4219 173.68Z" fill="#D36135"/>
<path d="M57.2485 149.795L57.9786 147.762L59.5146 148.314L59.5308 148.268C59.0992 147.671 58.847 146.977 58.7741 146.186C58.7067 145.38 58.8028 144.615 59.0624 143.892C59.3598 143.064 59.7706 142.37 60.2947 141.81C60.8241 141.236 61.4287 140.807 62.1083 140.524C62.7934 140.226 63.5282 140.073 64.3128 140.066C65.0824 140.053 65.8587 140.188 66.6417 140.469C67.4398 140.756 68.1392 141.151 68.7399 141.656C69.3256 142.155 69.7879 142.738 70.1268 143.404C70.4561 144.049 70.6421 144.762 70.6848 145.542C70.733 146.307 70.6083 147.104 70.3109 147.932C70.0351 148.7 69.6173 149.366 69.0577 149.93C68.4831 150.489 67.8523 150.849 67.1653 151.01L67.1491 151.056L75.0547 153.895L74.3246 155.928L57.2485 149.795ZM60.8705 144.822C60.6758 145.364 60.5979 145.889 60.6368 146.396C60.6607 146.898 60.7841 147.358 61.0073 147.779C61.2153 148.193 61.523 148.567 61.9303 148.901C62.3226 149.229 62.7898 149.49 63.3318 149.685C63.8739 149.879 64.4081 149.978 64.9344 149.98C65.4457 149.976 65.921 149.883 66.3605 149.701C66.7849 149.514 67.1733 149.237 67.5259 148.87C67.8635 148.499 68.1296 148.042 68.3243 147.499C68.519 146.957 68.6044 146.436 68.5806 145.934C68.5416 145.427 68.4182 144.966 68.2101 144.551C67.987 144.131 67.6793 143.757 67.287 143.429C66.8797 143.096 66.405 142.832 65.8629 142.637C65.3208 142.443 64.7942 142.347 64.2829 142.35C63.7566 142.348 63.2813 142.441 62.8569 142.629C62.4174 142.811 62.029 143.088 61.6914 143.46C61.3388 143.826 61.0652 144.28 60.8705 144.822Z" fill="#D36135"/>
<path d="M64.2564 131.851L65.2195 130.08L66.7798 130.928L66.8027 130.886C66.6851 130.768 66.5667 130.567 66.4476 130.283C66.3361 129.986 66.2616 129.654 66.2241 129.288C66.1802 128.899 66.1943 128.488 66.2666 128.054C66.3324 127.598 66.4876 127.145 66.7322 126.695C67.1373 125.95 67.632 125.409 68.2164 125.071C68.8008 124.733 69.4902 124.571 70.2844 124.584C69.8418 123.924 69.6263 123.215 69.6381 122.457C69.6499 121.698 69.8201 121.017 70.1488 120.412C70.5692 119.639 71.0397 119.075 71.5602 118.721C72.0807 118.367 72.6283 118.164 73.2028 118.112C73.7633 118.052 74.3374 118.119 74.9251 118.311C75.5063 118.481 76.078 118.719 76.6403 119.025L82.4595 122.189L81.4277 124.087L75.8614 121.06C75.4819 120.854 75.1011 120.683 74.7192 120.548C74.3448 120.399 73.9821 120.329 73.6309 120.339C73.2798 120.348 72.9505 120.451 72.643 120.648C72.3214 120.838 72.0345 121.164 71.7823 121.628C71.2855 122.542 71.2112 123.348 71.5594 124.048C71.9076 124.747 72.5245 125.338 73.4101 125.819L78.8709 128.789L77.839 130.686L72.6101 127.843C72.1322 127.583 71.6812 127.374 71.257 127.216C70.8405 127.044 70.4497 126.959 70.0845 126.961C69.7129 126.941 69.3733 127.03 69.0658 127.227C68.7519 127.402 68.4688 127.722 68.2166 128.186C68.0332 128.523 67.9238 128.891 67.8886 129.291C67.8469 129.669 67.8947 130.05 68.0318 130.434C68.1689 130.819 68.4101 131.196 68.7554 131.566C69.0866 131.928 69.5333 132.262 70.0955 132.568L75.2823 135.388L74.2504 137.286L64.2564 131.851Z" fill="#D36135"/>
<path d="M83.0053 113.234C83.3998 113.534 83.8255 113.728 84.2824 113.815C84.7363 113.879 85.1845 113.859 85.6269 113.753C86.0694 113.648 86.4948 113.459 86.9034 113.187C87.3119 112.915 87.6665 112.582 87.9672 112.188C88.3746 111.653 88.6077 111.097 88.6667 110.518C88.7129 109.929 88.6585 109.315 88.5035 108.673L90.4853 108.132C90.9922 110.027 90.5908 111.834 89.2814 113.552C88.7382 114.264 88.1227 114.821 87.4347 115.222C86.7565 115.61 86.0522 115.848 85.3219 115.935C84.5886 116 83.8531 115.922 83.1156 115.702C82.3654 115.472 81.6531 115.1 80.9787 114.586C80.3043 114.072 79.7681 113.482 79.37 112.817C78.969 112.129 78.7137 111.421 78.6042 110.694C78.4916 109.944 78.5327 109.191 78.7274 108.434C78.9221 107.677 79.2765 106.961 79.7906 106.287C80.4017 105.485 81.0557 104.917 81.7528 104.584C82.4595 104.237 83.1777 104.06 83.9074 104.053C84.6243 104.037 85.3273 104.17 86.0163 104.454C86.7023 104.715 87.3379 105.069 87.9233 105.515L88.5341 105.981L83.0053 113.234ZM85.7631 106.765C85.3716 106.487 84.9732 106.284 84.5678 106.156C84.1721 106.015 83.7772 105.966 83.3833 106.008C82.9766 106.04 82.5836 106.173 82.2041 106.406C81.8217 106.618 81.4656 106.94 81.1358 107.373C80.8157 107.793 80.6026 108.244 80.4964 108.726C80.3872 109.186 80.3677 109.634 80.4379 110.07C80.5081 110.505 80.6489 110.914 80.8603 111.297C81.0687 111.657 81.3256 111.953 81.631 112.186L85.7631 106.765Z" fill="#D36135"/>
<path d="M90.9999 93.5809L92.5562 92.083L93.7711 93.3454L93.8057 93.3121C93.5801 92.6854 93.5818 92.0065 93.8108 91.2754C94.0287 90.5327 94.4547 89.8563 95.0888 89.246C95.4807 88.8688 95.9164 88.5716 96.3958 88.3545C96.8757 88.1147 97.3702 87.9941 97.8795 87.9925C98.4002 87.9799 98.9355 88.0976 99.4852 88.3458C100.024 88.5824 100.554 88.9717 101.075 89.5135L106.151 94.7877L104.595 96.2855L99.9351 91.4436C99.5689 91.0632 99.2064 90.7903 98.8475 90.625C98.4774 90.4482 98.1283 90.3623 97.8 90.3673C97.4607 90.3608 97.1424 90.4339 96.8453 90.5867C96.5486 90.7168 96.2792 90.8983 96.0371 91.1313C95.7143 91.442 95.4645 91.7823 95.2877 92.1523C95.1109 92.5224 95.0296 92.9225 95.044 93.3528C95.0473 93.7716 95.1577 94.2093 95.3753 94.6661C95.5929 95.1229 95.9291 95.5877 96.384 96.0603L100.445 100.28L98.8884 101.778L90.9999 93.5809Z" fill="#D36135"/>
<path d="M116.248 75.1002L113.716 76.8813L116.685 81.1019C116.869 81.3636 117.059 81.6207 117.257 81.8733C117.445 82.1127 117.651 82.3095 117.877 82.4637C118.107 82.5955 118.353 82.6671 118.615 82.6783C118.881 82.6672 119.184 82.542 119.525 82.3026C119.734 82.1554 119.936 81.9838 120.131 81.7881C120.326 81.5924 120.478 81.3777 120.588 81.1441L121.72 82.7538C121.593 83.0189 121.374 83.2907 121.061 83.5693C120.771 83.8518 120.534 84.0574 120.351 84.1863C119.67 84.665 119.076 84.9462 118.567 85.0299C118.063 85.0914 117.613 85.036 117.218 84.8639C116.836 84.6826 116.497 84.4225 116.2 84.0837C115.907 83.7226 115.627 83.3522 115.36 82.9727L111.949 78.124L109.908 79.56L108.831 78.0289L110.872 76.5929L109.036 73.982L110.803 72.7393L112.639 75.3502L115.171 73.569L116.248 75.1002Z" fill="#D36135"/>
<path d="M156.003 61.8311L150.374 63.6125L149.766 61.6905L155.395 59.9091L156.003 61.8311Z" fill="#D36135"/>
</svg>
